<svg width="1270" height="814" viewBox="0 0 1270 814" fill="none" xmlns="http://www.w3.org/2000/svg">
<g clip-path="url(#clip0)">
<g clip-path="url(#clip1)">
<mask id="mask0" mask-type="alpha" maskUnits="userSpaceOnUse" x="0" y="0" width="1270" height="814">
<rect width="1270" height="814" rx="12" fill="black"/>
</mask>
<g mask="url(#mask0)">
</g>
<rect width="1270" height="814" rx="12" fill="white"/>
<rect width="1270" height="35" fill="white"/>
<mask id="path-6-inside-1" fill="white">
<path fill-rule="evenodd" clip-rule="evenodd" d="M20 14C20 17.3137 17.3137 20 14 20C10.6863 20 8 17.3137 8 14C8 10.6863 10.6863 8 14 8C17.3137 8 20 10.6863 20 14ZM40 14C40 17.3137 37.3137 20 34 20C30.6863 20 28 17.3137 28 14C28 10.6863 30.6863 8 34 8C37.3137 8 40 10.6863 40 14ZM54 20C57.3137 20 60 17.3137 60 14C60 10.6863 57.3137 8 54 8C50.6863 8 48 10.6863 48 14C48 17.3137 50.6863 20 54 20Z"/>
</mask>
<path fill-rule="evenodd" clip-rule="evenodd" d="M20 14C20 17.3137 17.3137 20 14 20C10.6863 20 8 17.3137 8 14C8 10.6863 10.6863 8 14 8C17.3137 8 20 10.6863 20 14ZM40 14C40 17.3137 37.3137 20 34 20C30.6863 20 28 17.3137 28 14C28 10.6863 30.6863 8 34 8C37.3137 8 40 10.6863 40 14ZM54 20C57.3137 20 60 17.3137 60 14C60 10.6863 57.3137 8 54 8C50.6863 8 48 10.6863 48 14C48 17.3137 50.6863 20 54 20Z" fill="#E5E5E5"/>
<path d="M14 20.5C17.5899 20.5 20.5 17.5899 20.5 14H19.5C19.5 17.0376 17.0376 19.5 14 19.5V20.5ZM7.5 14C7.5 17.5899 10.4101 20.5 14 20.5V19.5C10.9624 19.5 8.5 17.0376 8.5 14H7.5ZM14 7.5C10.4101 7.5 7.5 10.4101 7.5 14H8.5C8.5 10.9624 10.9624 8.5 14 8.5V7.5ZM20.5 14C20.5 10.4101 17.5899 7.5 14 7.5V8.5C17.0376 8.5 19.5 10.9624 19.5 14H20.5ZM34 20.5C37.5899 20.5 40.5 17.5899 40.5 14H39.5C39.5 17.0376 37.0376 19.5 34 19.5V20.5ZM27.5 14C27.5 17.5899 30.4101 20.5 34 20.5V19.5C30.9624 19.5 28.5 17.0376 28.5 14H27.5ZM34 7.5C30.4101 7.5 27.5 10.4101 27.5 14H28.5C28.5 10.9624 30.9624 8.5 34 8.5V7.5ZM40.5 14C40.5 10.4101 37.5899 7.5 34 7.5V8.5C37.0376 8.5 39.5 10.9624 39.5 14H40.5ZM59.5 14C59.5 17.0376 57.0376 19.5 54 19.5V20.5C57.5899 20.5 60.5 17.5899 60.5 14H59.5ZM54 8.5C57.0376 8.5 59.5 10.9624 59.5 14H60.5C60.5 10.4101 57.5899 7.5 54 7.5V8.5ZM48.5 14C48.5 10.9624 50.9624 8.5 54 8.5V7.5C50.4101 7.5 47.5 10.4101 47.5 14H48.5ZM54 19.5C50.9624 19.5 48.5 17.0376 48.5 14H47.5C47.5 17.5899 50.4101 20.5 54 20.5V19.5Z" fill="#C1C1C1" mask="url(#path-6-inside-1)"/>
</g>
<g clip-path="url(#clip2)">
<circle cx="14" cy="14" r="5.75" fill="#EC6A5E" stroke="#D15247" stroke-width="0.5"/>
<circle cx="34" cy="14" r="5.75" fill="#F4BE4F" stroke="#D7A43D" stroke-width="0.5"/>
<circle cx="54" cy="14" r="5.75" fill="#61C454" stroke="#4FAA3F" stroke-width="0.5"/>
<rect y="35" width="1270" height="0.5" fill="black" fill-opacity="0.15"/>
</g>
<g clip-path="url(#clip3)">
<path d="M602.938 23.5879H599.066L598.196 26H596.939L600.469 16.7578H601.535L605.071 26H603.82L602.938 23.5879ZM599.434 22.585H602.576L601.002 18.2622L599.434 22.585ZM611.933 22.6421C611.933 23.6873 611.694 24.5295 611.215 25.1685C610.737 25.8075 610.09 26.127 609.273 26.127C608.439 26.127 607.783 25.8625 607.305 25.3335V28.6406H606.131V19.1318H607.204L607.261 19.8936C607.739 19.3011 608.403 19.0049 609.254 19.0049C610.079 19.0049 610.731 19.3159 611.209 19.938C611.691 20.5601 611.933 21.4255 611.933 22.5342V22.6421ZM610.758 22.5088C610.758 21.7344 610.593 21.1229 610.263 20.6743C609.933 20.2257 609.48 20.0015 608.905 20.0015C608.194 20.0015 607.661 20.3167 607.305 20.9473V24.229C607.656 24.8553 608.194 25.1685 608.917 25.1685C609.48 25.1685 609.927 24.9463 610.257 24.502C610.591 24.0534 610.758 23.389 610.758 22.5088ZM619.232 22.6421C619.232 23.6873 618.993 24.5295 618.515 25.1685C618.037 25.8075 617.389 26.127 616.573 26.127C615.739 26.127 615.083 25.8625 614.605 25.3335V28.6406H613.431V19.1318H614.503L614.561 19.8936C615.039 19.3011 615.703 19.0049 616.554 19.0049C617.379 19.0049 618.031 19.3159 618.509 19.938C618.991 20.5601 619.232 21.4255 619.232 22.5342V22.6421ZM618.058 22.5088C618.058 21.7344 617.893 21.1229 617.563 20.6743C617.233 20.2257 616.78 20.0015 616.205 20.0015C615.494 20.0015 614.96 20.3167 614.605 20.9473V24.229C614.956 24.8553 615.494 25.1685 616.217 25.1685C616.78 25.1685 617.227 24.9463 617.557 24.502C617.891 24.0534 618.058 23.389 618.058 22.5088ZM625.548 17.4688V19.1318H626.831V20.0396H625.548V24.2988C625.548 24.5739 625.605 24.7812 625.72 24.9209C625.834 25.0563 626.029 25.124 626.304 25.124C626.439 25.124 626.625 25.0986 626.862 25.0479V26C626.553 26.0846 626.253 26.127 625.961 26.127C625.436 26.127 625.041 25.9683 624.774 25.6509C624.507 25.3335 624.374 24.8828 624.374 24.2988V20.0396H623.124V19.1318H624.374V17.4688H625.548ZM629.484 26H628.31V19.1318H629.484V26ZM628.214 17.3101C628.214 17.1196 628.271 16.9588 628.386 16.8276C628.504 16.6965 628.678 16.6309 628.906 16.6309C629.135 16.6309 629.308 16.6965 629.427 16.8276C629.545 16.9588 629.604 17.1196 629.604 17.3101C629.604 17.5005 629.545 17.6592 629.427 17.7861C629.308 17.9131 629.135 17.9766 628.906 17.9766C628.678 17.9766 628.504 17.9131 628.386 17.7861C628.271 17.6592 628.214 17.5005 628.214 17.3101ZM632.962 17.4688V19.1318H634.245V20.0396H632.962V24.2988C632.962 24.5739 633.02 24.7812 633.134 24.9209C633.248 25.0563 633.443 25.124 633.718 25.124C633.853 25.124 634.039 25.0986 634.276 25.0479V26C633.967 26.0846 633.667 26.127 633.375 26.127C632.85 26.127 632.455 25.9683 632.188 25.6509C631.921 25.3335 631.788 24.8828 631.788 24.2988V20.0396H630.538V19.1318H631.788V17.4688H632.962ZM636.898 26H635.724V16.25H636.898V26ZM641.633 26.127C640.702 26.127 639.945 25.8223 639.361 25.2129C638.777 24.5993 638.485 23.7804 638.485 22.7563V22.5405C638.485 21.8592 638.614 21.252 638.872 20.7188C639.134 20.1813 639.498 19.7624 639.964 19.4619C640.434 19.1572 640.941 19.0049 641.487 19.0049C642.38 19.0049 643.074 19.299 643.569 19.8872C644.064 20.4754 644.312 21.3175 644.312 22.4136V22.9023H639.659C639.676 23.5794 639.873 24.1274 640.25 24.5464C640.63 24.9611 641.113 25.1685 641.697 25.1685C642.111 25.1685 642.463 25.0838 642.75 24.9146C643.038 24.7453 643.29 24.521 643.506 24.2417L644.223 24.8003C643.648 25.6847 642.784 26.127 641.633 26.127ZM641.487 19.9697C641.013 19.9697 640.616 20.1432 640.294 20.4902C639.972 20.833 639.773 21.3154 639.697 21.9375H643.138V21.8486C643.104 21.252 642.943 20.7907 642.655 20.4648C642.368 20.1348 641.978 19.9697 641.487 19.9697ZM650.076 19.9634C650.596 19.3244 651.273 19.0049 652.107 19.0049C653.558 19.0049 654.291 19.8237 654.303 21.4614V26H653.129V21.4551C653.125 20.96 653.01 20.5939 652.786 20.3569C652.566 20.12 652.221 20.0015 651.751 20.0015C651.371 20.0015 651.036 20.103 650.749 20.3062C650.461 20.5093 650.236 20.7759 650.076 21.106V26H648.901V16.25H650.076V19.9634ZM658.912 26.127C657.981 26.127 657.223 25.8223 656.639 25.2129C656.055 24.5993 655.763 23.7804 655.763 22.7563V22.5405C655.763 21.8592 655.892 21.252 656.15 20.7188C656.413 20.1813 656.777 19.7624 657.242 19.4619C657.712 19.1572 658.22 19.0049 658.766 19.0049C659.659 19.0049 660.353 19.299 660.848 19.8872C661.343 20.4754 661.59 21.3175 661.59 22.4136V22.9023H656.938C656.954 23.5794 657.151 24.1274 657.528 24.5464C657.909 24.9611 658.391 25.1685 658.975 25.1685C659.39 25.1685 659.741 25.0838 660.029 24.9146C660.317 24.7453 660.568 24.521 660.784 24.2417L661.501 24.8003C660.926 25.6847 660.063 26.127 658.912 26.127ZM658.766 19.9697C658.292 19.9697 657.894 20.1432 657.572 20.4902C657.251 20.833 657.052 21.3154 656.976 21.9375H660.416V21.8486C660.382 21.252 660.221 20.7907 659.934 20.4648C659.646 20.1348 659.257 19.9697 658.766 19.9697ZM666.275 20.1855C666.097 20.1559 665.905 20.1411 665.697 20.1411C664.927 20.1411 664.404 20.4691 664.129 21.125V26H662.955V19.1318H664.098L664.117 19.9253C664.502 19.3117 665.048 19.0049 665.754 19.0049C665.983 19.0049 666.156 19.0345 666.275 19.0938V20.1855ZM670.083 26.127C669.153 26.127 668.395 25.8223 667.811 25.2129C667.227 24.5993 666.935 23.7804 666.935 22.7563V22.5405C666.935 21.8592 667.064 21.252 667.322 20.7188C667.585 20.1813 667.949 19.7624 668.414 19.4619C668.884 19.1572 669.392 19.0049 669.938 19.0049C670.83 19.0049 671.524 19.299 672.02 19.8872C672.515 20.4754 672.762 21.3175 672.762 22.4136V22.9023H668.109C668.126 23.5794 668.323 24.1274 668.7 24.5464C669.081 24.9611 669.563 25.1685 670.147 25.1685C670.562 25.1685 670.913 25.0838 671.201 24.9146C671.488 24.7453 671.74 24.521 671.956 24.2417L672.673 24.8003C672.098 25.6847 671.235 26.127 670.083 26.127ZM669.938 19.9697C669.464 19.9697 669.066 20.1432 668.744 20.4902C668.423 20.833 668.224 21.3154 668.147 21.9375H671.588V21.8486C671.554 21.252 671.393 20.7907 671.105 20.4648C670.818 20.1348 670.428 19.9697 669.938 19.9697Z" fill="black"/>
</g>
</g>
<defs>
<clipPath id="clip0">
<path d="M0 12C0 5.37258 5.37258 0 12 0H1258C1264.63 0 1270 5.37258 1270 12V802C1270 808.627 1264.63 814 1258 814H12C5.37259 814 0 808.627 0 802V12Z" fill="white"/>
</clipPath>
<clipPath id="clip1">
<rect width="1270" height="814" rx="12" fill="white"/>
</clipPath>
<clipPath id="clip2">
<rect width="1270" height="814" rx="12" fill="white"/>
</clipPath>
<clipPath id="clip3">
<rect width="1270" height="814" rx="12" fill="white"/>
</clipPath>
</defs>
</svg>
