<svg width="1270" height="814" viewBox="0 0 1270 814" fill="none" xmlns="http://www.w3.org/2000/svg">
<g clip-path="url(#clip0)">
<mask id="mask0" mask-type="alpha" maskUnits="userSpaceOnUse" x="0" y="0" width="1270" height="814">
<rect width="1270" height="814" rx="12" fill="black"/>
</mask>
<g mask="url(#mask0)">
</g>
<g clip-path="url(#clip1)">
<rect width="1270" height="814" rx="12" fill="#333333"/>
</g>
<rect width="1270" height="28" fill="#333333"/>
<g filter="url(#filter0_i)">
<path d="M-0.5 14.175C-0.5 10.7568 -0.5 9.04767 -0.10578 7.64988C0.88586 4.13379 3.63379 1.38586 7.14988 0.39422C8.54767 0 10.2568 0 13.675 0H1256.32C1259.74 0 1261.45 0 1262.85 0.39422C1266.37 1.38586 1269.11 4.13379 1270.11 7.64988C1270.5 9.04767 1270.5 10.7568 1270.5 14.175V28H-0.5V14.175Z" fill="#333333" fill-opacity="0.25"/>
</g>
<path fill-rule="evenodd" clip-rule="evenodd" d="M20 14C20 17.3137 17.3137 20 14 20C10.6863 20 8 17.3137 8 14C8 10.6863 10.6863 8 14 8C17.3137 8 20 10.6863 20 14ZM40 14C40 17.3137 37.3137 20 34 20C30.6863 20 28 17.3137 28 14C28 10.6863 30.6863 8 34 8C37.3137 8 40 10.6863 40 14ZM54 20C57.3137 20 60 17.3137 60 14C60 10.6863 57.3137 8 54 8C50.6863 8 48 10.6863 48 14C48 17.3137 50.6863 20 54 20Z" fill="#414141"/>
</g>
<g clip-path="url(#clip2)">
<circle cx="14" cy="14" r="6" fill="#EC665A"/>
<circle cx="34" cy="14" r="6" fill="#E0C14C"/>
<circle cx="54" cy="14" r="6" fill="#71BF46"/>
<g filter="url(#filter1_i)">
<rect y="28" width="1270" height="1" fill="black" fill-opacity="0.2"/>
</g>
</g>
<path d="M536.938 16.5879H533.066L532.196 19H530.939L534.469 9.75781H535.535L539.071 19H537.82L536.938 16.5879ZM533.434 15.585H536.576L535.002 11.2622L533.434 15.585ZM545.933 15.6421C545.933 16.6873 545.694 17.5295 545.215 18.1685C544.737 18.8075 544.09 19.127 543.273 19.127C542.439 19.127 541.783 18.8625 541.305 18.3335V21.6406H540.131V12.1318H541.204L541.261 12.8936C541.739 12.3011 542.403 12.0049 543.254 12.0049C544.079 12.0049 544.731 12.3159 545.209 12.938C545.691 13.5601 545.933 14.4255 545.933 15.5342V15.6421ZM544.758 15.5088C544.758 14.7344 544.593 14.1229 544.263 13.6743C543.933 13.2257 543.48 13.0015 542.905 13.0015C542.194 13.0015 541.661 13.3167 541.305 13.9473V17.229C541.656 17.8553 542.194 18.1685 542.917 18.1685C543.48 18.1685 543.927 17.9463 544.257 17.502C544.591 17.0534 544.758 16.389 544.758 15.5088ZM553.232 15.6421C553.232 16.6873 552.993 17.5295 552.515 18.1685C552.037 18.8075 551.389 19.127 550.573 19.127C549.739 19.127 549.083 18.8625 548.605 18.3335V21.6406H547.431V12.1318H548.503L548.561 12.8936C549.039 12.3011 549.703 12.0049 550.554 12.0049C551.379 12.0049 552.031 12.3159 552.509 12.938C552.991 13.5601 553.232 14.4255 553.232 15.5342V15.6421ZM552.058 15.5088C552.058 14.7344 551.893 14.1229 551.563 13.6743C551.233 13.2257 550.78 13.0015 550.205 13.0015C549.494 13.0015 548.96 13.3167 548.605 13.9473V17.229C548.956 17.8553 549.494 18.1685 550.217 18.1685C550.78 18.1685 551.227 17.9463 551.557 17.502C551.891 17.0534 552.058 16.389 552.058 15.5088ZM559.548 10.4688V12.1318H560.831V13.0396H559.548V17.2988C559.548 17.5739 559.605 17.7812 559.72 17.9209C559.834 18.0563 560.029 18.124 560.304 18.124C560.439 18.124 560.625 18.0986 560.862 18.0479V19C560.553 19.0846 560.253 19.127 559.961 19.127C559.436 19.127 559.041 18.9683 558.774 18.6509C558.507 18.3335 558.374 17.8828 558.374 17.2988V13.0396H557.124V12.1318H558.374V10.4688H559.548ZM563.484 19H562.31V12.1318H563.484V19ZM562.214 10.3101C562.214 10.1196 562.271 9.95882 562.386 9.82764C562.504 9.69645 562.678 9.63086 562.906 9.63086C563.135 9.63086 563.308 9.69645 563.427 9.82764C563.545 9.95882 563.604 10.1196 563.604 10.3101C563.604 10.5005 563.545 10.6592 563.427 10.7861C563.308 10.9131 563.135 10.9766 562.906 10.9766C562.678 10.9766 562.504 10.9131 562.386 10.7861C562.271 10.6592 562.214 10.5005 562.214 10.3101ZM566.962 10.4688V12.1318H568.245V13.0396H566.962V17.2988C566.962 17.5739 567.02 17.7812 567.134 17.9209C567.248 18.0563 567.443 18.124 567.718 18.124C567.853 18.124 568.039 18.0986 568.276 18.0479V19C567.967 19.0846 567.667 19.127 567.375 19.127C566.85 19.127 566.455 18.9683 566.188 18.6509C565.921 18.3335 565.788 17.8828 565.788 17.2988V13.0396H564.538V12.1318H565.788V10.4688H566.962ZM570.898 19H569.724V9.25H570.898V19ZM575.633 19.127C574.702 19.127 573.945 18.8223 573.361 18.2129C572.777 17.5993 572.485 16.7804 572.485 15.7563V15.5405C572.485 14.8592 572.614 14.252 572.872 13.7188C573.134 13.1813 573.498 12.7624 573.964 12.4619C574.434 12.1572 574.941 12.0049 575.487 12.0049C576.38 12.0049 577.074 12.299 577.569 12.8872C578.064 13.4754 578.312 14.3175 578.312 15.4136V15.9023H573.659C573.676 16.5794 573.873 17.1274 574.25 17.5464C574.63 17.9611 575.113 18.1685 575.697 18.1685C576.111 18.1685 576.463 18.0838 576.75 17.9146C577.038 17.7453 577.29 17.521 577.506 17.2417L578.223 17.8003C577.648 18.6847 576.784 19.127 575.633 19.127ZM575.487 12.9697C575.013 12.9697 574.616 13.1432 574.294 13.4902C573.972 13.833 573.773 14.3154 573.697 14.9375H577.138V14.8486C577.104 14.252 576.943 13.7907 576.655 13.4648C576.368 13.1348 575.978 12.9697 575.487 12.9697ZM584.076 12.9634C584.596 12.3244 585.273 12.0049 586.107 12.0049C587.558 12.0049 588.291 12.8237 588.303 14.4614V19H587.129V14.4551C587.125 13.96 587.01 13.5939 586.786 13.3569C586.566 13.12 586.221 13.0015 585.751 13.0015C585.371 13.0015 585.036 13.103 584.749 13.3062C584.461 13.5093 584.236 13.7759 584.076 14.106V19H582.901V9.25H584.076V12.9634ZM592.912 19.127C591.981 19.127 591.223 18.8223 590.639 18.2129C590.055 17.5993 589.763 16.7804 589.763 15.7563V15.5405C589.763 14.8592 589.892 14.252 590.15 13.7188C590.413 13.1813 590.777 12.7624 591.242 12.4619C591.712 12.1572 592.22 12.0049 592.766 12.0049C593.659 12.0049 594.353 12.299 594.848 12.8872C595.343 13.4754 595.59 14.3175 595.59 15.4136V15.9023H590.938C590.954 16.5794 591.151 17.1274 591.528 17.5464C591.909 17.9611 592.391 18.1685 592.975 18.1685C593.39 18.1685 593.741 18.0838 594.029 17.9146C594.317 17.7453 594.568 17.521 594.784 17.2417L595.501 17.8003C594.926 18.6847 594.063 19.127 592.912 19.127ZM592.766 12.9697C592.292 12.9697 591.894 13.1432 591.572 13.4902C591.251 13.833 591.052 14.3154 590.976 14.9375H594.416V14.8486C594.382 14.252 594.221 13.7907 593.934 13.4648C593.646 13.1348 593.257 12.9697 592.766 12.9697ZM600.275 13.1855C600.097 13.1559 599.905 13.1411 599.697 13.1411C598.927 13.1411 598.404 13.4691 598.129 14.125V19H596.955V12.1318H598.098L598.117 12.9253C598.502 12.3117 599.048 12.0049 599.754 12.0049C599.983 12.0049 600.156 12.0345 600.275 12.0938V13.1855ZM604.083 19.127C603.153 19.127 602.395 18.8223 601.811 18.2129C601.227 17.5993 600.935 16.7804 600.935 15.7563V15.5405C600.935 14.8592 601.064 14.252 601.322 13.7188C601.585 13.1813 601.949 12.7624 602.414 12.4619C602.884 12.1572 603.392 12.0049 603.938 12.0049C604.83 12.0049 605.524 12.299 606.02 12.8872C606.515 13.4754 606.762 14.3175 606.762 15.4136V15.9023H602.109C602.126 16.5794 602.323 17.1274 602.7 17.5464C603.081 17.9611 603.563 18.1685 604.147 18.1685C604.562 18.1685 604.913 18.0838 605.201 17.9146C605.488 17.7453 605.74 17.521 605.956 17.2417L606.673 17.8003C606.098 18.6847 605.235 19.127 604.083 19.127ZM603.938 12.9697C603.464 12.9697 603.066 13.1432 602.744 13.4902C602.423 13.833 602.224 14.3154 602.147 14.9375H605.588V14.8486C605.554 14.252 605.393 13.7907 605.105 13.4648C604.818 13.1348 604.428 12.9697 603.938 12.9697Z" fill="white"/>
<defs>
<filter id="filter0_i" x="-0.5" y="0" width="1271" height="28.5" filterUnits="userSpaceOnUse" color-interpolation-filters="sRGB">
<feFlood flood-opacity="0" result="BackgroundImageFix"/>
<feBlend mode="normal" in="SourceGraphic" in2="BackgroundImageFix" result="shape"/>
<feColorMatrix in="SourceAlpha" type="matrix" values="0 0 0 0 0 0 0 0 0 0 0 0 0 0 0 0 0 0 127 0" result="hardAlpha"/>
<feOffset dy="0.5"/>
<feGaussianBlur stdDeviation="0.375"/>
<feComposite in2="hardAlpha" operator="arithmetic" k2="-1" k3="1"/>
<feColorMatrix type="matrix" values="0 0 0 0 1 0 0 0 0 1 0 0 0 0 1 0 0 0 0.66 0"/>
<feBlend mode="normal" in2="shape" result="effect1_innerShadow"/>
</filter>
<filter id="filter1_i" x="0" y="28" width="1270" height="1" filterUnits="userSpaceOnUse" color-interpolation-filters="sRGB">
<feFlood flood-opacity="0" result="BackgroundImageFix"/>
<feBlend mode="normal" in="SourceGraphic" in2="BackgroundImageFix" result="shape"/>
<feColorMatrix in="SourceAlpha" type="matrix" values="0 0 0 0 0 0 0 0 0 0 0 0 0 0 0 0 0 0 127 0" result="hardAlpha"/>
<feOffset dy="-0.5"/>
<feComposite in2="hardAlpha" operator="arithmetic" k2="-1" k3="1"/>
<feColorMatrix type="matrix" values="0 0 0 0 0 0 0 0 0 0 0 0 0 0 0 0 0 0 0.75 0"/>
<feBlend mode="normal" in2="shape" result="effect1_innerShadow"/>
</filter>
<clipPath id="clip0">
<rect width="1270" height="814" rx="12" fill="white"/>
</clipPath>
<clipPath id="clip1">
<rect width="1270" height="814" rx="12" fill="white"/>
</clipPath>
<clipPath id="clip2">
<rect width="1270" height="814" rx="12" fill="white"/>
</clipPath>
</defs>
</svg>
